<?xml version="1.0" encoding="utf-8"?>
<!-- Generator: Adobe Illustrator 27.5.0, SVG Export Plug-In . SVG Version: 6.00 Build 0)  -->
<svg version="1.1" xmlns="http://www.w3.org/2000/svg" xmlns:xlink="http://www.w3.org/1999/xlink" x="0px" y="0px"
	 viewBox="0 0 3710 3710" style="enable-background:new 0 0 3710 3710;" xml:space="preserve">
<g id="Background">
	<g>
		<g>
			<rect style="fill:#FFFFFF;" width="3710" height="3710"/>
		</g>
	</g>
</g>
<g id="Illustration">
	<g>
		<path style="fill:#F4F7FA;" d="M2361.424,514.718c-211.6-47.207-431.599-69.833-646.704-55.41
			c-190.651,12.783-406.759,47.673-560.179,172.648c-73.114,59.558-160.306,166.577-184.221,260.989
			c-0.003,0.011-125.886,496.951-377.648,603.44c-251.766,106.489-426.603,1923.907,1482.619,1746.425
			c0,0,1121.373-46.507,1188.893-1386.112c16.311-323.606,7.198-679.362-188.2-949.951
			c-149.734-207.354-359.526-299.551-600.6-364.062C2437.723,532.607,2399.711,523.26,2361.424,514.718z"/>
		<g>
			<g>
				<g>
					<defs>
						<path id="SVGID_1_" d="M3200.575,1749.851c-13.17-24.853-39.812-46.444-64.735-58.887
							c-176.68-88.203-360.651,281.261-367.933,377.828c-7.282,96.567-36.91,117.009-198.662,102.182
							c-161.752-14.827-128.423,99.276-131.672,156.595c-3.25,57.318,13.841,113.943-111.251,120.477
							c-125.092,6.533-101.536,52.394-101.536,52.394s111.156,276.863,126.624,209.345c15.468-67.517,74.182-154.835,249.961-90.585
							c75.712,27.673,204.369,39.325,262.576-29.922c13.554-16.125,29.369-42.776,32.845-63.832
							c4.821-29.208-3.979-57.438-3.314-86.531c1.549-67.799,76.008-87.113,124.829-112.658
							c25.488-13.336,51.184-27.199,73.861-45.045c47.081-37.052,58.352-93.019,47.24-149.729
							c-5.328-27.193-15.634-57.972-11.279-85.975c4.679-30.082,25.914-65.042,39.127-92.515
							c10.362-21.545,21.552-42.65,29.462-65.274C3211.431,1845.633,3222.592,1791.398,3200.575,1749.851z"/>
					</defs>
					
						<linearGradient id="SVGID_00000115503637237753321900000002124291989250156723_" gradientUnits="userSpaceOnUse" x1="2757.0881" y1="1581.9213" x2="2609.5415" y2="3729.5317">
						<stop  offset="0" style="stop-color:#FFC444"/>
						<stop  offset="0.9964" style="stop-color:#F36F56"/>
					</linearGradient>
					
						<use xlink:href="#SVGID_1_"  style="overflow:visible;fill:url(#SVGID_00000115503637237753321900000002124291989250156723_);"/>
					<clipPath id="SVGID_00000064338850112010543710000005419999501408638617_">
						<use xlink:href="#SVGID_1_"  style="overflow:visible;"/>
					</clipPath>
					<g style="opacity:0.8;clip-path:url(#SVGID_00000064338850112010543710000005419999501408638617_);">
						<g>
							<path style="fill:#FFFFFF;" d="M2163.856,2604.806c-1.431-0.067-2.629-1.182-2.76-2.649
								c-0.144-1.602,1.038-3.018,2.641-3.161c0.984-0.088,99.773-9.197,219.359-42.036
								c110.189-30.259,261.085-87.428,354.19-187.941c77.761-83.948,179.082-233.992,277.982-411.658
								c88.685-159.316,142.968-281.821,144.212-308.218c0.076-1.607,1.439-2.848,3.047-2.772c1.607,0.076,2.848,1.439,2.772,3.047
								c-1.456,30.878-65.122,167.388-144.941,310.777c-99.118,178.056-200.736,328.509-278.798,412.784
								c-94.06,101.544-246.067,159.168-357.022,189.628c-120.072,32.963-219.293,42.104-220.281,42.192
								C2164.122,2604.81,2163.988,2604.813,2163.856,2604.806z"/>
						</g>
						<g>
							<path style="fill:#FFFFFF;" d="M3001.647,1990.196c-1.828,0-2.906-1.307-2.841-2.909c0.086-2.12,7.742-212.871-62.705-290.29
								c-1.083-1.189-1.013-3.003,0.177-4.085c1.19-1.083,3.023-0.981,4.106,0.209c72.058,79.187,64.602,285.639,64.247,294.394
								c-0.065,1.607-1.364,2.68-2.965,2.68C3001.66,1990.196,3001.653,1990.196,3001.647,1990.196z"/>
						</g>
						<g>
							<path style="fill:#FFFFFF;" d="M2880.871,2187.692c-1.193-0.056-2.278-0.85-2.648-2.059c-0.47-1.538,0.395-3.167,1.933-3.637
								c0.667-0.204,67.579-20.516,143.448-29.401c102.51-12.004,171.702,1.434,205.659,39.942c1.064,1.207,0.948,3.047-0.258,4.111
								c-1.208,1.063-3.047,0.948-4.111-0.258c-78.124-88.594-340.393-9.63-343.033-8.823
								C2881.531,2187.668,2881.197,2187.708,2880.871,2187.692z"/>
						</g>
						<g>
							<path style="fill:#FFFFFF;" d="M2484.337,2530.426c-0.313-0.015-0.627-0.081-0.935-0.203
								c-1.496-0.592-2.228-2.284-1.636-3.78c0.311-0.786,31.333-79.685,49.083-168.994
								c16.274-81.884,24.452-189.505-29.011-237.203c-1.201-1.071-1.305-2.912-0.234-4.113c1.07-1.201,2.913-1.306,4.113-0.234
								c44.58,39.773,54.954,121.45,30.831,242.762c-17.858,89.814-49.052,169.135-49.366,169.926
								C2486.712,2529.775,2485.547,2530.482,2484.337,2530.426z"/>
						</g>
						<g>
							<path style="fill:#FFFFFF;" d="M2647.903,2449.901c-1.252-0.059-2.369-0.928-2.688-2.206c-0.39-1.561,0.56-3.142,2.121-3.531
								c11.315-2.821,277.949-68.536,351.738-21.196c1.354,0.869,1.748,2.671,0.879,4.024c-0.869,1.354-2.671,1.749-4.024,0.879
								c-71.7-45.998-344.437,21.26-347.183,21.944C2648.462,2449.887,2648.179,2449.914,2647.903,2449.901z"/>
						</g>
					</g>
				</g>
			</g>
			<g>
				<g>
					<defs>
						<path id="SVGID_00000044158644333169006130000012839531934428387723_" d="M2904.484,1164.262
							c-28.274-25.147-72-39.858-109.265-43.841c-264.162-28.232-322.6,523.947-286.434,649.11s8.414,164.848-202.472,222.113
							c-210.885,57.265-115.285,185.465-92.465,259.253c22.819,73.787,70.956,137.15-83.681,204.129
							c-154.637,66.979-103.403,113.734-103.403,113.734s270.148,296.846,257.943,204.463
							c-12.206-92.384,20.813-230.038,272.591-231.581c108.447-0.665,276.117-46.392,316.982-161.026
							c9.516-26.694,16.939-67.72,11.434-95.897c-7.637-39.087-31.988-70.544-44.813-107.534
							c-29.885-86.203,54.917-145.518,104.47-200.648c25.87-28.782,51.756-58.325,71.964-91.474
							c41.956-68.821,29.884-144.672-10.754-210.949c-19.487-31.781-46.933-65.744-54.593-103.094
							c-8.227-40.122,2.126-94.168,5.883-135.009c2.946-32.028,7.144-63.889,6.491-96.126
							C2963.149,1279.917,2951.751,1206.302,2904.484,1164.262z"/>
					</defs>
					
						<linearGradient id="SVGID_00000101782817786830233720000005339634463392406144_" gradientUnits="userSpaceOnUse" x1="2018.6257" y1="1955.21" x2="3043.5146" y2="1955.21">
						<stop  offset="0" style="stop-color:#FF9085"/>
						<stop  offset="1" style="stop-color:#FB6FBB"/>
					</linearGradient>
					
						<use xlink:href="#SVGID_00000044158644333169006130000012839531934428387723_"  style="overflow:visible;fill:url(#SVGID_00000101782817786830233720000005339634463392406144_);"/>
					<clipPath id="SVGID_00000097498540066120942060000005500300946628342422_">
						<use xlink:href="#SVGID_00000044158644333169006130000012839531934428387723_"  style="overflow:visible;"/>
					</clipPath>
					<g style="opacity:0.8;clip-path:url(#SVGID_00000097498540066120942060000005500300946628342422_);">
						<g>
							<path style="fill:#FFFFFF;" d="M1998.958,2728.948c-1.836,0.587-3.869-0.256-4.723-2.044
								c-0.934-1.953-0.108-4.292,1.845-5.225c1.199-0.573,121.466-58.446,256.809-156.004
								c124.708-89.892,288.098-232.824,358.276-403.263c58.613-142.351,115.89-379.092,157.145-649.521
								c36.993-242.497,47.9-422.432,37.073-456.295c-0.659-2.062,0.477-4.267,2.539-4.926c2.062-0.659,4.267,0.477,4.926,2.539
								c12.665,39.612-3.496,241.609-36.791,459.863c-41.346,271.022-98.805,508.419-157.645,651.323
								c-70.899,172.187-235.477,316.215-361.055,406.72c-135.897,97.941-256.695,156.059-257.898,156.634
								C1999.295,2728.829,1999.127,2728.894,1998.958,2728.948z"/>
						</g>
						<g>
							<path style="fill:#FFFFFF;" d="M2766.486,1561.008c-2.051,0.656-4.242-0.447-4.912-2.496
								c-0.888-2.714-90.184-272.086-215.353-336.608c-1.924-0.991-2.678-3.35-1.686-5.273c0.992-1.924,3.355-2.677,5.279-1.685
								c128.03,65.995,215.545,329.926,219.209,341.13c0.672,2.056-0.451,4.266-2.513,4.925
								C2766.502,1561.003,2766.494,1561.006,2766.486,1561.008z"/>
						</g>
						<g>
							<path style="fill:#FFFFFF;" d="M2707.034,1866.384c-1.531,0.489-3.271-0.002-4.305-1.352
								c-1.315-1.718-0.989-4.178,0.729-5.494c0.744-0.57,75.564-57.599,167.04-104.428
								c123.598-63.272,217.141-78.823,278.033-46.22c1.908,1.021,2.626,3.396,1.605,5.304c-1.024,1.908-3.396,2.626-5.304,1.605
								c-140.094-75.004-433.66,147.704-436.609,149.962C2707.855,1866.044,2707.452,1866.251,2707.034,1866.384z"/>
						</g>
						<g>
							<path style="fill:#FFFFFF;" d="M2368.064,2484.681c-0.401,0.128-0.829,0.193-1.274,0.184
								c-2.163-0.044-3.882-1.834-3.837-3.998c0.022-1.137,2.083-115.173-17.478-236.101
								c-17.935-110.874-58.163-250.393-147.963-285.422c-2.017-0.787-3.013-3.058-2.227-5.075c0.785-2.018,3.059-3.015,5.075-2.227
								c74.88,29.208,126.313,127.309,152.868,291.575c19.661,121.616,17.583,236.265,17.56,237.409
								C2370.753,2482.745,2369.615,2484.185,2368.064,2484.681z"/>
						</g>
						<g>
							<path style="fill:#FFFFFF;" d="M2536.459,2306.353c-1.606,0.513-3.423-0.058-4.424-1.519
								c-1.224-1.785-0.769-4.224,1.016-5.447c12.94-8.87,318.23-216.927,433.487-191.895c2.115,0.459,3.458,2.546,2.998,4.661
								c-0.459,2.115-2.546,3.459-4.661,2.998c-111.994-24.321-424.252,188.547-427.393,190.699
								C2537.158,2306.073,2536.814,2306.24,2536.459,2306.353z"/>
						</g>
					</g>
				</g>
			</g>
		</g>
		<g>
			<path style="fill:#AABBCC;" d="M3254.238,2722.69l-2472.479-21.732v64.301c0,17.452,10.784,32.292,25.389,34.937l699.143,126.619
				c8.297,1.502,16.711,1.901,25.084,1.188l1695.994-144.366c15.141-1.289,26.868-16.175,26.868-34.106V2722.69z"/>
			<g>
				<path style="fill:#AABBCC;" d="M2356.986,2618.456l-1549.659,117.63c-27.73,2.104-50.277-20.261-50.277-49.962v-1189.93
					c0-29.7,22.547-53.778,50.277-53.778h1549.659c22.845,0,41.316,21.766,41.316,48.615v1075.674
					C2398.302,2593.553,2379.831,2616.721,2356.986,2618.456z"/>
				<path style="fill:#FFFFFF;" d="M2381.695,2618.456l-1549.658,117.63c-27.731,2.104-50.277-20.261-50.277-49.962v-1189.93
					c0-29.7,22.546-53.778,50.277-53.778h1549.658c22.846,0,41.317,21.766,41.317,48.615v1075.674
					C2423.011,2593.553,2404.541,2616.721,2381.695,2618.456z"/>
				<path style="fill:#BFC8D6;" d="M2333.418,2542.619L890.074,2644.796c-22.566,1.597-40.905-16.76-40.905-41.007V1562.004
					c0-24.246,18.338-43.985,40.905-44.085l1443.345-6.416c18.846-0.084,34.09,17.751,34.09,39.836v948.88
					C2367.508,2522.303,2352.264,2541.285,2333.418,2542.619z"/>
				<path style="fill:#FFFFFF;" d="M1661.595,1474.963c0,11.056-7.976,20.045-17.825,20.078
					c-9.862,0.032-17.865-8.925-17.865-20.006s8.003-20.071,17.865-20.079C1653.619,1454.948,1661.595,1463.906,1661.595,1474.963z"
					/>
				<path style="opacity:0.48;fill:#FFFFFF;" d="M2008.329,2292.099c-119.465-69.042-213.4,18.442-304.053-67.874
					c-54.96-52.331-27.977-91.355-95.604-169.557c-74.903-86.615-123.668-57.5-198.944-135.454
					c-95.181-98.568-47.577-175.257-129.563-246.026c-99.461-85.853-206.725-6.391-301.405-88.726
					c-40.836-35.512-63.242-87.139-74.943-142.046h-92.64c-16.234,0-29.417,14.132-29.417,31.566v1233.466
					c0,17.434,13.183,30.561,29.417,29.323l1579.356-120.415c7.751-0.591,14.623-5.452,19.033-12.499
					c-115.613-4.526-186.64-46.156-232.043-89.192C2088.704,2430.476,2104.11,2347.452,2008.329,2292.099z"/>
			</g>
			
				<linearGradient id="SVGID_00000072991119478455775110000015422494675405343640_" gradientUnits="userSpaceOnUse" x1="781.7595" y1="2741.2314" x2="3254.2383" y2="2741.2314">
				<stop  offset="0.494" style="stop-color:#EBEFF2"/>
				<stop  offset="1" style="stop-color:#FFFFFF"/>
			</linearGradient>
			<path style="fill:url(#SVGID_00000072991119478455775110000015422494675405343640_);" d="M2443.46,2613.121l-1661.7,123.817
				l724.533,131.216c8.297,1.503,16.711,1.902,25.084,1.189l1722.863-146.653l-784.345-108.727
				C2461.121,2612.746,2452.274,2612.465,2443.46,2613.121z"/>
			<polygon style="fill:#D8DEE8;" points="1024.228,2740.051 2407.643,2635.435 2835.797,2694.308 1464.3,2806.139 			"/>
		</g>
		<g>
			<g>
				<g>
					<path style="fill:#EAEDF3;" d="M1022.584,1081.351v1556.508c0,26.123,23.215,45.787,50.776,43.926l1167.106-78.685
						c24.752-1.672,46.77-23.03,46.77-47.709V1084.909L1022.584,1081.351z"/>
					<path style="fill:#D8DEE8;" d="M2240.877,985.674L1074.16,977.05c-27.561-0.204-51.576,20.801-51.576,46.924v57.378
						l1264.652,3.558v-54.207C2287.236,1006.023,2265.629,985.857,2240.877,985.674z"/>
				</g>
			</g>
			
				<linearGradient id="SVGID_00000013175971154341152000000004411317788686089383_" gradientUnits="userSpaceOnUse" x1="2494.7488" y1="2704.1404" x2="2067.4243" y2="2267.5759">
				<stop  offset="0" style="stop-color:#FFFFFF"/>
				<stop  offset="0.9964" style="stop-color:#EBEFF2"/>
			</linearGradient>
			<path style="fill:url(#SVGID_00000013175971154341152000000004411317788686089383_);" d="M1050.302,1081.401v1554.646
				c0,26.092,23.134,45.734,50.63,43.877l1160.668-78.501c24.696-1.668,42.96-23.002,42.96-47.653V1084.928L1050.302,1081.401z"/>
			
				<linearGradient id="SVGID_00000157271239201465168880000004853784271880299198_" gradientUnits="userSpaceOnUse" x1="1675.2427" y1="2218.5894" x2="1668.3131" y2="2483.6475">
				<stop  offset="0" style="stop-color:#FFFFFF"/>
				<stop  offset="0.9964" style="stop-color:#EBEFF2"/>
			</linearGradient>
			<path style="fill:url(#SVGID_00000157271239201465168880000004853784271880299198_);" d="M1095.345,1081.543v1519.159
				c0,15.18,12.921,26.639,28.909,25.596l1124.829-73.274c14.425-0.941,27.759-13.37,27.759-27.762V1084.875L1095.345,1081.543z"/>
			<path style="fill:#D8DEE8;" d="M2206.637,1215.821l-1036.57,3.379c-8.633,0.028-15.821,6.708-15.821,14.92v847.519
				c0,8.212,6.915,14.575,15.548,14.212l1036.888-43.483c7.855-0.33,14.723-6.94,14.723-14.766v-807.66
				C2221.405,1222.118,2214.493,1215.795,2206.637,1215.821z"/>
			<path style="fill:#BFC8D6;" d="M2261.988,985.831l-1162.118-8.606c-27.495-0.203-49.568,20.776-49.568,46.867v57.309
				l1254.258,3.527v-54.146C2304.56,1006.131,2286.684,986.013,2261.988,985.831z"/>
			<polygon style="fill:#D8DEE8;" points="1625.459,2327.897 1154.246,2352.995 1154.246,2278.651 1625.459,2255.099 			"/>
			<polygon style="fill:#D8DEE8;" points="1982.334,2387.614 1154.246,2434.773 1154.246,2390.167 1982.334,2344.639 			"/>
			<polygon style="fill:#D8DEE8;" points="1982.334,2462.819 1154.246,2512.834 1154.246,2468.228 1982.334,2419.845 			"/>
			<g>
				<path style="fill:#FFFFFF;" d="M1142.305,1029.159c0,12.319-10.521,22.262-23.512,22.208
					c-13.006-0.054-23.561-10.105-23.561-22.449c0-12.345,10.555-22.287,23.561-22.208
					C1131.784,1006.79,1142.305,1016.841,1142.305,1029.159z"/>
				<path style="fill:#FFFFFF;" d="M1220.359,1029.559c0,12.277-10.448,22.186-23.35,22.132
					c-12.917-0.053-23.398-10.069-23.398-22.371s10.482-22.211,23.398-22.132
					C1209.911,1007.267,1220.359,1017.283,1220.359,1029.559z"/>
				<path style="fill:#FFFFFF;" d="M1297.878,1029.956c0,12.234-10.377,22.11-23.19,22.057
					c-12.828-0.053-23.238-10.035-23.238-22.294c0-12.26,10.41-22.135,23.238-22.056
					C1287.501,1007.74,1297.878,1017.722,1297.878,1029.956z"/>
			</g>
		</g>
		<g>
			<g>
				<g>
					<path style="fill:#EAEDF3;" d="M1299.768,949.188v1537.557c0,25.805,22.847,45.377,49.742,43.719l1137.098-70.119
						c24.185-1.49,43.164-22.475,43.164-46.87V959.876L1299.768,949.188z"/>
					<path style="fill:#D8DEE8;" d="M2487.108,861.549L1348.96,846.425c-26.896-0.358-49.192,20.279-49.192,46.083v56.679
						l1230.004,10.688v-53.584C2529.772,881.896,2511.293,861.87,2487.108,861.549z"/>
				</g>
			</g>
			<path style="fill:#FFFFFF;" d="M1327.486,949.403v1535.733c0,25.774,22.434,45.325,49.266,43.672l1136.068-69.954
				c24.13-1.487,44.671-22.444,44.671-46.812V960.106L1327.486,949.403z"/>
			
				<linearGradient id="SVGID_00000097474822819426232340000011874993064894641597_" gradientUnits="userSpaceOnUse" x1="1372.5289" y1="1712.9194" x2="2519.3779" y2="1712.9194">
				<stop  offset="0" style="stop-color:#FFFFFF"/>
				<stop  offset="0.9964" style="stop-color:#EBEFF2"/>
			</linearGradient>
			<path style="fill:url(#SVGID_00000097474822819426232340000011874993064894641597_);" d="M1372.529,949.807v1500.7
				c0,14.995,11.923,26.399,27.526,25.473l1095.285-65.081c14.095-0.836,24.038-13.05,24.038-27.277V959.778L1372.529,949.807z"/>
			<path style="fill:#D8DEE8;" d="M2452.9,1088.872l-1010.849-2.682c-8.426-0.022-14.085,6.528-14.085,14.64v837.27
				c0,8.113,7.086,14.446,15.511,14.143l1009.303-36.485c7.675-0.277,11.161-6.77,11.161-14.505v-798.338
				C2463.941,1095.178,2460.575,1088.892,2452.9,1088.872z"/>
			<path style="fill:#BFC8D6;" d="M2513.131,861.881l-1136.026-15.104c-26.831-0.357-49.618,20.239-49.618,46.013v56.612
				l1230.004,10.703v-53.523C2557.491,882.215,2537.262,862.202,2513.131,861.881z"/>
			<polygon style="fill:#D8DEE8;" points="1888.784,2184.396 1427.966,2206.173 1427.966,2132.729 1888.784,2112.461 			"/>
			<polygon style="fill:#D8DEE8;" points="2238.729,2245.7 1427.966,2286.962 1427.966,2242.896 2238.729,2203.226 			"/>
			<polygon style="fill:#D8DEE8;" points="2238.729,2320.028 1427.966,2364.08 1427.966,2320.013 2238.729,2277.555 			"/>
			<g>
				<path style="fill:#FFFFFF;" d="M1416.986,898.299c0,12.17-10.267,21.932-22.945,21.805
					c-12.693-0.127-22.993-10.117-22.993-22.311c0-12.195,10.3-21.957,22.993-21.804
					C1406.719,876.141,1416.986,886.13,1416.986,898.299z"/>
				<path style="fill:#FFFFFF;" d="M1493.165,899.139c0,12.128-10.198,21.858-22.79,21.732
					c-12.606-0.127-22.836-10.081-22.836-22.235c0-12.153,10.23-21.883,22.836-21.731
					C1482.967,877.056,1493.165,887.011,1493.165,899.139z"/>
				<path style="fill:#FFFFFF;" d="M1568.827,899.973c0,12.087-10.128,21.784-22.635,21.659
					c-12.521-0.126-22.681-10.046-22.681-22.158c0-12.112,10.161-21.809,22.681-21.658
					C1558.698,877.966,1568.827,887.886,1568.827,899.973z"/>
			</g>
		</g>
		<g>
			<g>
				<g>
					<g>
						<path style="fill:#EAEDF3;" d="M2789.632,803.534v1435.695c0,24.104-16.688,44.656-40.288,45.932l-1108.326,59.992
							c-26.209,1.418-46.742-18.058-46.742-43.535V784.103L2789.632,803.534z"/>
						<path style="fill:#D8DEE8;" d="M2789.632,750.602v52.931l-1195.356-19.431v-55.948c0-25.477,21.035-45.693,47.245-45.146
							l1107.999,23.115C2773.119,706.615,2789.632,726.499,2789.632,750.602z"/>
					</g>
				</g>
				<path style="fill:#FFFFFF;" d="M2817.351,803.946v1434.065c0,24.076-18.735,44.601-42.282,45.875l-1106.1,59.851
					c-26.148,1.414-46.974-18.042-46.974-43.489V784.518L2817.351,803.946z"/>
				
					<linearGradient id="SVGID_00000111908891907894392910000000955975111178968193_" gradientUnits="userSpaceOnUse" x1="1663.5721" y1="1538.4893" x2="2782.7026" y2="1538.4893">
					<stop  offset="0" style="stop-color:#FFFFFF"/>
					<stop  offset="0.9964" style="stop-color:#EBEFF2"/>
				</linearGradient>
				<path style="fill:url(#SVGID_00000111908891907894392910000000955975111178968193_);" d="M1663.572,785.171v1481.225
					c0,14.801,11.903,26.16,27.104,25.373l1068.16-55.373c13.749-0.712,23.866-12.676,23.866-26.728V803.428L1663.572,785.171z"/>
				<path style="fill:#D8DEE8;" d="M2718.627,930.376l-987.399-10.05c-8.209-0.084-15.684,6.338-15.684,14.345v826.422
					c0,8.008,8.209,14.314,16.418,14.08l985.897-28.134c7.487-0.214,12.872-6.585,12.872-14.225V944.332
					C2730.731,936.692,2726.114,930.452,2718.627,930.376z"/>
				<path style="fill:#BFC8D6;" d="M2817.351,751.075v52.871l-1195.356-19.428v-55.882c0-25.447,20.579-45.627,46.727-45.082
					l1106.272,23.062C2798.541,707.107,2817.351,726.999,2817.351,751.075z"/>
				<polygon style="fill:#D8DEE8;" points="2165.968,2007.843 1715.544,2025.694 1715.544,1953.201 2165.968,1936.819 				"/>
				<polygon style="fill:#D8DEE8;" points="2508.983,2071.179 1715.544,2105.436 1715.544,2061.94 2508.983,2029.237 				"/>
				<polygon style="fill:#D8DEE8;" points="2508.983,2144.578 1715.544,2181.554 1715.544,2138.058 2508.983,2102.636 				"/>
				<g>
					<path style="fill:#FFFFFF;" d="M1707.458,734.685c0,12.012-10.003,21.574-22.354,21.357
						c-12.365-0.217-22.399-10.151-22.399-22.188c0-12.036,10.034-21.598,22.399-21.356
						C1697.456,712.74,1707.458,722.673,1707.458,734.685z"/>
					<path style="fill:#FFFFFF;" d="M1781.678,736.063c0,11.972-9.936,21.502-22.204,21.286
						c-12.282-0.216-22.249-10.116-22.249-22.112c0-11.996,9.967-21.526,22.249-21.285
						C1771.742,714.192,1781.678,724.091,1781.678,736.063z"/>
					<path style="fill:#FFFFFF;" d="M1855.4,737.432c0,11.932-9.869,21.431-22.056,21.216c-12.2-0.215-22.1-10.081-22.1-22.036
						c0-11.956,9.9-21.454,22.1-21.216C1845.531,715.634,1855.4,725.5,1855.4,737.432z"/>
				</g>
			</g>
			<g>
				<defs>
					<path id="SVGID_00000095305916609388291000000000611808134641885085_" d="M2718.627,933.836l-987.399-9.888
						c-8.209-0.082-15.684,6.34-15.684,14.348v826.422c0,8.008,8.209,14.313,16.418,14.077l985.897-28.296
						c7.487-0.215,12.872-6.587,12.872-14.227V947.79C2730.731,940.15,2726.114,933.911,2718.627,933.836z"/>
				</defs>
				<clipPath id="SVGID_00000124130656441933801250000008558164813200275585_">
					<use xlink:href="#SVGID_00000095305916609388291000000000611808134641885085_"  style="overflow:visible;"/>
				</clipPath>
				<g style="clip-path:url(#SVGID_00000124130656441933801250000008558164813200275585_);">
					
						<linearGradient id="SVGID_00000121279118030806647930000010954540725491547057_" gradientUnits="userSpaceOnUse" x1="1748.3591" y1="1724.9786" x2="2726.0083" y2="1724.9786">
						<stop  offset="0.0036" style="stop-color:#E38DDD"/>
						<stop  offset="1" style="stop-color:#9571F6"/>
					</linearGradient>
					<path style="fill:url(#SVGID_00000121279118030806647930000010954540725491547057_);" d="M2712.857,1708.582
						c-4.489-65.02-46.867-120.273-107.83-140.3c-319.384-104.921-597.9-29.562-745.147,30.48
						c-65.491,26.704-109.046,89.587-109.743,158.789l-1.777,176.472l977.649-34.927L2712.857,1708.582z"/>
					
						<linearGradient id="SVGID_00000114051297437813893900000007249325233940171413_" gradientUnits="userSpaceOnUse" x1="2246.5854" y1="1339.5236" x2="2248.4031" y2="1692.1737">
						<stop  offset="0.0036" style="stop-color:#F36F56"/>
						<stop  offset="1" style="stop-color:#FFC444"/>
					</linearGradient>
					<path style="fill:url(#SVGID_00000114051297437813893900000007249325233940171413_);" d="M2186.648,1300.761l-16.084,121.71
						c-4.674,77.375-80.395,109.306-80.395,109.306c88.846,102.873,256.678,91.201,314.757-11.167
						c-40.102-13.749-85.238-75.449-86.997-119.68l-4.083-102.659L2186.648,1300.761z"/>
					<g>
						
							<linearGradient id="SVGID_00000121268770686164651310000002852869954067045015_" gradientUnits="userSpaceOnUse" x1="2312.1738" y1="854.1101" x2="2223.2922" y2="1403.0146">
							<stop  offset="0.0036" style="stop-color:#F36F56"/>
							<stop  offset="1" style="stop-color:#FFC444"/>
						</linearGradient>
						<path style="fill:url(#SVGID_00000121268770686164651310000002852869954067045015_);" d="M2393.18,1190.986
							c0,101.281-59.821,211.791-134.452,213.909c-75.574,2.145-137.54-107.407-137.54-211.014
							c0-103.608,61.966-160.118,137.54-159.922C2333.359,1034.151,2393.18,1089.703,2393.18,1190.986z"/>
						
							<linearGradient id="SVGID_00000038376829028677039260000007661462608662927526_" gradientUnits="userSpaceOnUse" x1="2265.0659" y1="967.5305" x2="2221.4363" y2="1236.974">
							<stop  offset="0" style="stop-color:#444B8C"/>
							<stop  offset="0.9964" style="stop-color:#26264F"/>
						</linearGradient>
						<path style="fill:url(#SVGID_00000038376829028677039260000007661462608662927526_);" d="M2117.082,1220.076
							c7.629-1.311,15.249-2.621,22.858-3.929c-3.495-8.433-17.931-45.822,0-78.802c17.179-31.595,57.516-47.054,88.209-45.058
							c34.755,2.259,55.557,18.446,72.921,5.815c9.745-7.09,12.899-19.921,14.012-29.909c0.769,6.388,2.51,15.836,6.993,26.268
							c12.868,29.94,34.6,36.069,46.413,55.789c7.946,13.263,13.112,35.515,0,74.935c6.547-0.484,13.085-0.969,19.617-1.452
							c6.892-22.113,15.15-53.431,20.282-91.682c7.616-56.76,12.854-95.805-8.773-114.893c-4.315-3.808-23.421-18.934-69.295-4.978
							c-10.777-11.486-33.524-32.566-68.625-43.391c-12.17-3.753-72.742-22.434-126.746,16.58
							c-36.886,26.648-65.89,76.728-56.558,118.226c4.931,21.93,18.406,31.727,30.25,74.049
							C2113.635,1195.497,2115.933,1210.532,2117.082,1220.076z"/>
						
							<linearGradient id="SVGID_00000005259780080742775530000010137506963052273825_" gradientUnits="userSpaceOnUse" x1="2451.0769" y1="878.2673" x2="2362.9331" y2="1422.6166">
							<stop  offset="0.0036" style="stop-color:#F36F56"/>
							<stop  offset="1" style="stop-color:#FFC444"/>
						</linearGradient>
						<path style="fill:url(#SVGID_00000005259780080742775530000010137506963052273825_);" d="M2374.598,1228.611
							c0,0,8.589-44.503,34.627-40.373c25.924,4.112-11.247,77.215-34.627,86.363V1228.611z"/>
						
							<linearGradient id="SVGID_00000129203553925998090070000008863341344263873173_" gradientUnits="userSpaceOnUse" x1="2181.7788" y1="831.858" x2="2092.3462" y2="1384.165">
							<stop  offset="0.0036" style="stop-color:#F36F56"/>
							<stop  offset="1" style="stop-color:#FFC444"/>
						</linearGradient>
						<path style="fill:url(#SVGID_00000129203553925998090070000008863341344263873173_);" d="M2138.332,1231.872
							c0,0-8.948-45.211-36.234-40.431c-27.41,4.801,11.816,78.824,36.234,87.337V1231.872z"/>
					</g>
					<path style="fill:#FFFFFF;" d="M2404.885,1520.656l-107.824,234.819l-48.366,105.274l-46.697-96.942l-111.825-232.042
						c41.2,11.859,81.461,17.049,118.692,18.234c28.663,0.914,55.517-0.58,79.586-3.291
						C2356.864,1538.956,2403.105,1521.319,2404.885,1520.656z"/>
					<g>
						
							<linearGradient id="SVGID_00000141413342367406570370000013556768909093196956_" gradientUnits="userSpaceOnUse" x1="2249.71" y1="1637.2311" x2="2251.2495" y2="1935.9402">
							<stop  offset="0" style="stop-color:#311944"/>
							<stop  offset="0.5554" style="stop-color:#6F2B60"/>
							<stop  offset="1" style="stop-color:#A03976"/>
						</linearGradient>
						<polygon style="fill:url(#SVGID_00000141413342367406570370000013556768909093196956_);" points="2298.359,1755.491 
							2249.344,1860.758 2202.322,1763.811 2230.328,1605.269 2276.842,1602.443 2276.842,1602.478 						"/>
						
							<linearGradient id="SVGID_00000170957524594100742700000000943856016702180024_" gradientUnits="userSpaceOnUse" x1="2248.5559" y1="1551.9131" x2="2248.9226" y2="1623.0586">
							<stop  offset="0" style="stop-color:#311944"/>
							<stop  offset="0.5554" style="stop-color:#6F2B60"/>
							<stop  offset="1" style="stop-color:#A03976"/>
						</linearGradient>
						<polygon style="fill:url(#SVGID_00000170957524594100742700000000943856016702180024_);" points="2207.794,1547.023 
							2228.87,1605.253 2273.778,1604.297 2289.249,1543.451 						"/>
					</g>
				</g>
			</g>
			<path style="opacity:0.3;fill:#FFFFFF;" d="M2655.464,2126.886c-4.64,42.501-6.141,80.766-5.118,115.156
				c0.512,17.089,1.638,33.208,3.344,48.425l-1011.47,54.687c-26.209,1.418-47.943-18.059-47.943-43.536V728.155
				c0-25.477,21.035-45.693,47.245-45.146l70.436,1.456c11.793,9.124,23.714,20.046,34.628,33.078
				c8.9,10.63,17.458,22.689,25.123,36.354c5.699,10.187,11.063,21.265,15.758,33.304c13.889,35.47,23.004,79.423,24.038,133.937
				c0.184,10.397,0.128,21.152-0.277,32.338c-11.071,306.86,18.437,484.466,355.651,568.261
				c195.658,48.646,348.35,103.134,429.609,228.837C2651.536,1835.692,2674.276,1954.074,2655.464,2126.886z"/>
		</g>
		<g>
			<g>
				
					<linearGradient id="SVGID_00000082362838267459881610000003768129732769749395_" gradientUnits="userSpaceOnUse" x1="36.5373" y1="2664.6636" x2="490.4734" y2="1615.7948" gradientTransform="matrix(-1 0 0 1 1888.3765 0)">
					<stop  offset="0" style="stop-color:#444B8C"/>
					<stop  offset="0.9964" style="stop-color:#3E4177"/>
				</linearGradient>
				<path style="fill:url(#SVGID_00000082362838267459881610000003768129732769749395_);" d="M1342.754,1910.881l-1.24,24.492
					c0,0,25.112,14.646,61.269,32.559c67.684,58.333,169.706,126.264,228.783,69.751c47.08-45.053,57.877-103.055,56.928-149.763
					c-0.911-46.542-13.571-81.915-13.571-81.915l-54.776,14.687c-82.865-160.644-258.072-291.831-258.072-291.831l-12.203,241.152
					l-6.537,129.657l-8.688,2.524C1334.645,1902.193,1337.542,1905.42,1342.754,1910.881z"/>
				
					<linearGradient id="SVGID_00000078025080471033319950000002619899276841453997_" gradientUnits="userSpaceOnUse" x1="143.0486" y1="2442.5994" x2="427.2239" y2="1785.9814" gradientTransform="matrix(-1 0 0 1 1888.3765 0)">
					<stop  offset="0" style="stop-color:#444B8C"/>
					<stop  offset="0.9964" style="stop-color:#3E4177"/>
				</linearGradient>
				<path style="opacity:0.2;fill:url(#SVGID_00000078025080471033319950000002619899276841453997_);" d="M1342.754,1910.881
					l-1.24,24.492c0,0,25.112,14.646,61.269,32.559c67.684,58.333,169.706,126.264,228.783,69.751
					c47.08-45.053,57.877-103.055,56.928-149.763c-7.199-27.594-25.196-44.515-56.928-41.909c0,0-49.397-12.246-110.047,39.385
					c-60.691,51.631-45.508-93.25-143.433-114.598c-10.591-2.317-19.94-2.4-28.214-0.786l-6.537,129.657l-8.688,2.524
					C1334.645,1902.193,1337.542,1905.42,1342.754,1910.881z"/>
			</g>
			
				<linearGradient id="SVGID_00000100346235159397718680000003408277748766287508_" gradientUnits="userSpaceOnUse" x1="-900.7192" y1="3399.4431" x2="-799.4109" y2="3399.4431" gradientTransform="matrix(-0.996 0.0897 0.0897 0.996 -88.1907 -160.4537)">
				<stop  offset="0" style="stop-color:#444B8C"/>
				<stop  offset="0.9964" style="stop-color:#26264F"/>
			</linearGradient>
			<path style="fill:url(#SVGID_00000100346235159397718680000003408277748766287508_);" d="M1019.133,3129.609
				c-5.256,4.832-5.589,16.119-5.805,23.497c-0.099,3.296-0.146,4.944,0.29,6.08c3.187,8.281,19.617,8.17,45.459,9.229
				c40.838,1.673,53.109,4.131,55.918-2.102c2.631-5.842-5.137-14.67-6.01-15.643c-4.696-5.226-10.171-6.898-20.726-9.673
				c-19.531-5.135-32.679-7.797-36.659-8.604C1026.742,3127.355,1022.585,3126.437,1019.133,3129.609z"/>
			
				<linearGradient id="SVGID_00000038399768202925599190000009244377963682513035_" gradientUnits="userSpaceOnUse" x1="-1333.5898" y1="3309.8777" x2="-1289.1423" y2="3217.8816" gradientTransform="matrix(-0.9976 0.0694 0.0694 0.9976 -504.1166 -60.6691)">
				<stop  offset="0" style="stop-color:#FFC444"/>
				<stop  offset="0.9964" style="stop-color:#F36F56"/>
			</linearGradient>
			<path style="fill:url(#SVGID_00000038399768202925599190000009244377963682513035_);" d="M1047.775,3088.887l1.592,46.484
				c-1.272,2.173-15.383,8.14-25.999,1.81l-8.011-46.037L1047.775,3088.887z"/>
			
				<linearGradient id="SVGID_00000118374425661263932980000004549609949267903673_" gradientUnits="userSpaceOnUse" x1="-1280.8219" y1="3696.1775" x2="-1173.1891" y2="3696.1775" gradientTransform="matrix(-0.977 0.2133 0.2133 0.977 -576.6851 -210.6557)">
				<stop  offset="0" style="stop-color:#444B8C"/>
				<stop  offset="0.9964" style="stop-color:#26264F"/>
			</linearGradient>
			<path style="fill:url(#SVGID_00000118374425661263932980000004549609949267903673_);" d="M1363.127,3123.182
				c-7.021,6.969-9.253,20.371-3.841,27.322c5.318,6.833,14.102,2.39,38.232,4.402c25.846,2.157,32.28,8.632,50.133,4.718
				c7.213-1.584,20.02-5.68,20.053-10.768c0.023-3.578-6.269-5.762-27.232-14.053c-29.756-11.768-29.594-12.315-35.97-13.724
				C1388.484,3117.538,1372.401,3113.983,1363.127,3123.182z"/>
			
				<linearGradient id="SVGID_00000170249165848403830700000001809365071522039709_" gradientUnits="userSpaceOnUse" x1="-1472.2446" y1="3520.342" x2="-1426.8562" y2="3426.3984" gradientTransform="matrix(-0.9894 0.1453 0.1453 0.9894 -570.1572 -128.6684)">
				<stop  offset="0" style="stop-color:#FFC444"/>
				<stop  offset="0.9964" style="stop-color:#F36F56"/>
			</linearGradient>
			<path style="fill:url(#SVGID_00000170249165848403830700000001809365071522039709_);" d="M1381.97,3081.844l10.679,43.887
				c-1.105,2.264-14.718,9.288-25.786,3.787l-17.045-42.953L1381.97,3081.844z"/>
			
				<linearGradient id="SVGID_00000013194795517013144340000016554650580459601074_" gradientUnits="userSpaceOnUse" x1="4371.6309" y1="2740.6016" x2="4084.5532" y2="2093.4597" gradientTransform="matrix(0.9986 0.0533 -0.0533 0.9986 -2782.3174 -19.3005)">
				<stop  offset="0" style="stop-color:#444B8C"/>
				<stop  offset="0.9964" style="stop-color:#3E4177"/>
			</linearGradient>
			<path style="fill:url(#SVGID_00000013194795517013144340000016554650580459601074_);" d="M1317.113,2129.691
				c-5.891,145.261-4.701,309.006,9.598,487.6c14.131,176.512,38.595,336.627,67.068,477.793
				c-16.806,3.573-33.61,7.146-50.415,10.718c-39.938-41.436-89.666-105.962-110.595-194.512
				c-12.989-54.96-6.212-82.484-12.73-149.578c-10.378-106.83-39.898-164.085-68.91-251.334
				c-26.07-78.402-55.716-193.005-66.793-344.668C1161.93,2153.704,1239.522,2141.697,1317.113,2129.691z"/>
			
				<linearGradient id="SVGID_00000055681525774855045380000015044995970156242053_" gradientUnits="userSpaceOnUse" x1="4327.1123" y1="2760.3491" x2="4040.0347" y2="2113.2083" gradientTransform="matrix(0.9986 0.0533 -0.0533 0.9986 -2782.3174 -19.3005)">
				<stop  offset="0" style="stop-color:#444B8C"/>
				<stop  offset="0.9964" style="stop-color:#3E4177"/>
			</linearGradient>
			<path style="opacity:0.3;fill:url(#SVGID_00000055681525774855045380000015044995970156242053_);" d="M1293.903,2808.558
				c-18.504-73.282-54.153-92.66-55.423-161.832c-0.898-48.928,16.685-52.929,15.518-99.761
				c-1.77-71.036-43.384-108.283-64.291-152.966c-22.08-47.192-30.54-122.992,28.967-249.076
				c-44.779,6.93-89.558,13.86-134.338,20.788c11.077,151.663,40.723,266.267,66.793,344.668
				c29.012,87.25,58.532,144.505,68.91,251.334c6.518,67.094-0.259,94.619,12.73,149.577
				c20.929,88.551,70.656,153.077,110.595,194.514c4.275-0.91,8.549-1.816,12.823-2.726
				c-43.174-51.533-58.409-97.557-62.284-134.901C1287.598,2907.419,1312.559,2882.446,1293.903,2808.558z"/>
			
				<linearGradient id="SVGID_00000026854914897175357080000011875721837759226532_" gradientUnits="userSpaceOnUse" x1="3770.7195" y1="3162.6238" x2="3483.6348" y2="2515.4663" gradientTransform="matrix(0.9976 -0.0694 0.0694 0.9976 -2705.6309 92.9864)">
				<stop  offset="0" style="stop-color:#444B8C"/>
				<stop  offset="0.9964" style="stop-color:#3E4177"/>
			</linearGradient>
			<path style="fill:url(#SVGID_00000026854914897175357080000011875721837759226532_);" d="M1149.146,2120.61
				c-19.999,184.079-38.382,371.69-54.921,562.74c-12.413,143.364-23.468,284.975-33.254,424.78
				c-17.034,1.185-34.07,2.372-51.104,3.556c-14.726-31.318-33.96-79.023-45.652-139.477
				c-14.202-73.423-7.72-116.228-11.634-191.747c-4.394-84.701-16.33-103.74-33.536-211.211
				c-34.922-218.111-52.383-327.167,2.999-391.467C940.021,2156.909,995.653,2105.107,1149.146,2120.61z"/>
			
				<linearGradient id="SVGID_00000049200548712004929070000008440521361309905336_" gradientUnits="userSpaceOnUse" x1="580.6261" y1="622.1895" x2="1002.6176" y2="2591.4756" gradientTransform="matrix(-1 0 0 1 1888.3765 0)">
				<stop  offset="0" style="stop-color:#444B8C"/>
				<stop  offset="0.9964" style="stop-color:#3E4177"/>
			</linearGradient>
			<path style="fill:url(#SVGID_00000049200548712004929070000008440521361309905336_);" d="M715.197,1556.249
				c18.368,40.337,40.791,94.036,62.18,158.534c14.811,44.722,28.382,85.679,39.634,125.892
				c18.162,65.077,30.16,128.25,31.277,202.222c0.414,26.064,0.166,98.959,4.468,206.152c2.772,69.504,5.709,109.385,28.794,119.728
				c24.077,10.798,43.605-22.382,101.979-42.116c42.862-14.521,86.053-10.632,170.698-2.234
				c126.222,12.535,135.199,30.366,159.939,15.597c38.022-22.754,29.002-72.192,50.556-261.423
				c13.238-116.046,18.865-117.287,24.657-199.533c5.751-82.204,5.089-151.832,2.979-203.173
				c-9.185-51.259-18.328-102.518-27.471-153.735c-67.765-18.99-153.281-36.034-252.777-40.13
				c-125.23-5.171-233.787,11.791-319.094,33.51c-9.723,2.441-19.154,4.965-28.257,7.571
				C749.286,1530.309,733.277,1542.058,715.197,1556.249z"/>
			
				<linearGradient id="SVGID_00000078741710408210186680000013316255302670370749_" gradientUnits="userSpaceOnUse" x1="3515.1855" y1="2275.3054" x2="3954.1328" y2="1261.0696" gradientTransform="matrix(1 0 0 1 -2544.7375 0)">
				<stop  offset="0" style="stop-color:#444B8C"/>
				<stop  offset="0.9964" style="stop-color:#3E4177"/>
			</linearGradient>
			<path style="opacity:0.3;fill:url(#SVGID_00000078741710408210186680000013316255302670370749_);" d="M1265.082,2285.372
				c-62.085-26.491-61.725-81.315-119.711-104.195c-82.745-32.65-174.164,43.2-188.437,22.168
				c-14.854-21.884,94.332-88.995,79.808-155.182c-11.543-52.6-87.76-43.278-128.58-115.279
				c-38.724-68.301-1.181-131.448-35.47-155.184c-12.297-8.513-33.989-11.873-75.116,6.227
				c28.678,89.564,49.241,168.546,50.73,266.451c0.397,26.084,0.132,98.958,4.434,206.172
				c2.789,69.501,5.729,109.365,28.819,119.713c24.079,10.789,43.611-22.371,101.978-42.121
				c42.863-14.505,86.059-10.606,170.701-2.217c126.228,12.511,135.176,30.359,159.912,15.573
				c16.109-9.629,23.767-24.106,28.893-51.917C1317.738,2298.312,1290.892,2296.383,1265.082,2285.372z"/>
			<path style="fill:#FFFFFF;" d="M992.75,1491.076c-0.117,25.959,38.698,114.1,105.382,242.812
				c18.518,35.658,40.508,74.713,63.566,116.846c11.837-27.015,21.229-53.559,29.14-79.196v-0.029
				c35.6-140.344,14.502-255.968,10.107-272.785c-0.382-1.436-5.671-2.698-5.671-2.698
				C1116.225,1469.92,1013.903,1484.601,992.75,1491.076z"/>
			<g>
				
					<linearGradient id="SVGID_00000009550122187786502550000013340662558440732606_" gradientUnits="userSpaceOnUse" x1="3852.2681" y1="70.933" x2="3863.5676" y2="-230.0554" gradientTransform="matrix(0.8944 0.4471 -0.4471 0.8944 -2373.7107 -182.9961)">
					<stop  offset="0" style="stop-color:#FFC444"/>
					<stop  offset="0.9964" style="stop-color:#F36F56"/>
				</linearGradient>
				<path style="fill:url(#SVGID_00000009550122187786502550000013340662558440732606_);" d="M1100.747,1370.939
					c-1.354,30.091-5.983,53.766-10.03,69.932c-4.636,18.523-7.514,23.218-11.067,26.963c-5.349,5.638-13.243,10.185-56.914,18.571
					c-23.764,4.563-26.774,4.243-27.416,6.542c-3.132,11.22,58.757,53.333,125.329,47.534c40.744-3.547,78.768-24.655,77.157-36.889
					c-1.622-12.315-42.365-7.929-53.227-30.631c-7.555-15.792,2.996-37.075,15.057-54.524
					C1149.962,1397.725,1110.419,1391.65,1100.747,1370.939z"/>
				<g>
					
						<linearGradient id="SVGID_00000130617231729862882530000007966044781932554403_" gradientUnits="userSpaceOnUse" x1="3138.9563" y1="1181.5118" x2="3252.0542" y2="1181.5118" gradientTransform="matrix(-0.981 0.1939 0.1939 0.981 4022.2332 -393.6034)">
						<stop  offset="0" style="stop-color:#444B8C"/>
						<stop  offset="0.9964" style="stop-color:#3E4177"/>
					</linearGradient>
					<path style="fill:url(#SVGID_00000130617231729862882530000007966044781932554403_);" d="M1164.284,1379.374
						c7.667-13.919,5.118-35.943-7.763-48.257c-11.086-10.596-26.091-10.19-35.076-9.95c-26.034,0.699-56.824,16.004-64.699,41.181
						c-4.665,14.92,13.886,41.889,16.887,46.785c3.398,5.535,8.317,6.899,13.24,10.748c6.822,5.34,17.523,13.85,35.047,28.137
						c0.486-5.024,1.421-11.289,3.339-18.211c0.738-2.665,3.743-13.086,9.248-22.158
						C1145.53,1389.466,1157.016,1392.565,1164.284,1379.374z"/>
					
						<linearGradient id="SVGID_00000068675113933677783280000005812609291175001269_" gradientUnits="userSpaceOnUse" x1="2539.4861" y1="984.5048" x2="2535.9629" y2="1268.3658" gradientTransform="matrix(0.9787 -0.2053 0.2053 0.9787 -1568.661 944.2593)">
						<stop  offset="0" style="stop-color:#FFC444"/>
						<stop  offset="0.9964" style="stop-color:#F36F56"/>
					</linearGradient>
					<path style="fill:url(#SVGID_00000068675113933677783280000005812609291175001269_);" d="M1098.298,1437.271
						c0,0,20.781,25.219,53.993,18.252c29.735-6.239,24.522-74.175,3.313-85.721c-7.077-3.853-20.169-4.003-30.167,0.402
						c-5.906,2.603-7.624,5.457-17.356,9.519c-8.978,3.751-11.757,3.093-14.234,5.861c-3.096,3.466-4.638,11.095,4.049,29.933
						c-6.555-4.979-13.745-6.224-18.288-3.23c-0.724,0.481-2.584,2.176-3.442,4.466
						C1073.068,1425.041,1081.492,1433.857,1098.298,1437.271z"/>
					
						<linearGradient id="SVGID_00000127045924171294714430000002594256831978685584_" gradientUnits="userSpaceOnUse" x1="3144.7012" y1="1219.0643" x2="3240.197" y2="1219.0643" gradientTransform="matrix(-0.981 0.1939 0.1939 0.981 4022.2332 -393.6034)">
						<stop  offset="0" style="stop-color:#444B8C"/>
						<stop  offset="0.9964" style="stop-color:#3E4177"/>
					</linearGradient>
					<path style="fill:url(#SVGID_00000127045924171294714430000002594256831978685584_);" d="M1091.915,1381.754
						c1.602,0.873-2.052,6.904-1.29,14.595c1.475,14.928,19.036,30.594,34.572,29.917c9.185-0.401,10.895-6.215,25.642-9.935
						c9.131-2.302,17.016-2.224,22.022-1.856c7.028,15.599,4.917,32.455-4.885,41.535c-10.553,9.775-26.213,6.995-32.76,5.832
						c-4.379-0.779-18.41-3.243-27.172-14.537c-9.129-11.769-3.067-20.514-12.679-27.983c-4.848-3.768-10.667-4.868-17.277-12.559
						c-1.794-2.089-3.064-3.983-3.858-5.265C1080.802,1392.186,1089.596,1380.49,1091.915,1381.754z"/>
					
						<linearGradient id="SVGID_00000009588090207695566390000004239161945954181037_" gradientUnits="userSpaceOnUse" x1="-1119.3743" y1="909.9011" x2="-1115.3859" y2="945.457" gradientTransform="matrix(-0.9895 0.145 0.145 0.9895 -85.0665 675.8591)">
						<stop  offset="0" style="stop-color:#FFC444"/>
						<stop  offset="1" style="stop-color:#F36F56"/>
					</linearGradient>
					<path style="fill:url(#SVGID_00000009588090207695566390000004239161945954181037_);" d="M1162.826,1422.061
						c0,0-5.998,4.313-17.29,5.282c-0.549,0.046-1.127,0.292-1.156,0.584c-0.106,1.099,7.761,4.839,14.117,2.033
						c4.512-1.995,7.535-6.967,6.74-8.01C1164.901,1421.511,1163.847,1421.725,1162.826,1422.061z"/>
				</g>
			</g>
			
				<linearGradient id="SVGID_00000101088465454133375650000007462659904056788117_" gradientUnits="userSpaceOnUse" x1="2337.9109" y1="1558.5017" x2="2399.3743" y2="1558.5017" gradientTransform="matrix(-1 0 0 1 3481.0825 0)">
				<stop  offset="0" style="stop-color:#FF9085"/>
				<stop  offset="1" style="stop-color:#FB6FBB"/>
			</linearGradient>
			<path style="fill:url(#SVGID_00000101088465454133375650000007462659904056788117_);" d="M1143.172,1537.238l-7.199,42.528
				h-29.666l-24.598-40.174C1081.708,1539.592,1138.285,1541.732,1143.172,1537.238z"/>
			<g>
				
					<linearGradient id="SVGID_00000153679144352321899820000002274489181068330883_" gradientUnits="userSpaceOnUse" x1="2331.9844" y1="1532.8171" x2="2337.2617" y2="1784.3828" gradientTransform="matrix(-1 0 0 1 3481.0825 0)">
					<stop  offset="0" style="stop-color:#FF9085"/>
					<stop  offset="1" style="stop-color:#FB6FBB"/>
				</linearGradient>
				<path style="fill:url(#SVGID_00000153679144352321899820000002274489181068330883_);" d="M1098.132,1733.888
					c5.597,10.782,11.398,21.886,17.434,33.284c13.859,26.282,30.048,54.175,46.133,83.562
					c11.837-27.015,21.229-53.559,29.14-79.196v-0.029l-53.048-189.01l-1.443-3.018c-0.059-0.264-0.429-0.498-0.546-0.733
					c-3.78-8.321-29.366,0-29.366,0L1098.132,1733.888z"/>
				
					<linearGradient id="SVGID_00000109712523130430442990000012768287768484289708_" gradientUnits="userSpaceOnUse" x1="2290.2444" y1="1716.6162" x2="2365.5166" y2="1716.6162" gradientTransform="matrix(-1 0 0 1 3481.0825 0)">
					<stop  offset="0" style="stop-color:#FF9085"/>
					<stop  offset="1" style="stop-color:#FB6FBB"/>
				</linearGradient>
				<path style="opacity:0.3;fill:url(#SVGID_00000109712523130430442990000012768287768484289708_);" d="M1115.566,1767.172
					c13.859,26.282,30.048,54.175,46.133,83.562c11.837-27.015,21.229-53.559,29.14-79.196v-0.029l-53.048-189.01
					c-5.186,1.142-17.236,6.622-15.712,32.376c1.934,33.225,37.28,91.824,17.268,115.263
					C1131.464,1739.367,1122.567,1753.05,1115.566,1767.172z"/>
			</g>
			
				<linearGradient id="SVGID_00000081626242732944856990000007246324811270391991_" gradientUnits="userSpaceOnUse" x1="901.6102" y1="528.4961" x2="1329.6633" y2="2526.0701" gradientTransform="matrix(-1 0 0 1 1888.3765 0)">
				<stop  offset="0" style="stop-color:#444B8C"/>
				<stop  offset="0.9964" style="stop-color:#3E4177"/>
			</linearGradient>
			<path style="fill:url(#SVGID_00000081626242732944856990000007246324811270391991_);" d="M533.702,2160.721
				c67.682,62.594,163.375,60.857,205.863,57.051c5.626-13.942,11.211-27.843,16.837-41.785
				c-71.531-52.541-111.744-130.691-95.939-197.464c19.445-82.328,118.57-124.361,156.547-137.848
				c6.04-2.151,10.508-3.599,12.908-4.344c53.285-16.962,71.49-5.833,89.942-25.526c56.223-60.112-12.991-280.164-115.467-294.727
				c-3.848-0.538-7.612-0.703-11.377-0.538c-9.434,0.455-18.742,3.144-28.257,7.571c-15.474,7.198-31.483,18.948-49.562,33.138
				c-11.957,9.35-24.823,19.817-39.054,30.697c-43.482,33.262-115.011,87.996-159.981,185.839
				C476.942,1858.092,421.048,2056.466,533.702,2160.721z"/>
			<g>
				
					<linearGradient id="SVGID_00000016755248380818040330000002920156460373223604_" gradientUnits="userSpaceOnUse" x1="1026.6838" y1="1974.6605" x2="2216.4167" y2="1974.6605" gradientTransform="matrix(-0.9808 0.1951 0.1951 0.9808 2439.0251 -243.4712)">
					<stop  offset="0" style="stop-color:#893976"/>
					<stop  offset="1" style="stop-color:#311944"/>
				</linearGradient>
				<path style="fill:url(#SVGID_00000016755248380818040330000002920156460373223604_);" d="M696.713,2313.973l-9.191-15.903
					c-14.654-25.357-5.223-57.383,21.057-71.469l1030.377-552.269l55.953,106.632l-1024.436,553.18
					C744.347,2348.252,711.32,2339.248,696.713,2313.973z"/>
				
					<linearGradient id="SVGID_00000064331963423506560840000016311151691815759255_" gradientUnits="userSpaceOnUse" x1="-70.5755" y1="1599.1432" x2="1157.0021" y2="1599.1432" gradientTransform="matrix(-0.9808 0.1951 0.1951 0.9808 2439.0251 -243.4712)">
					<stop  offset="0" style="stop-color:#893976"/>
					<stop  offset="1" style="stop-color:#311944"/>
				</linearGradient>
				<path style="fill:url(#SVGID_00000064331963423506560840000016311151691815759255_);" d="M2510.979,1992.677
					c-293.97,164.34-666.129,53.242-829.976-257.319c-167.787-318.029-49.63-714.309,262.376-875.426
					c306.383-158.214,674.716-23.913,824.472,290.714C2914.201,1458.117,2799.868,1831.176,2510.979,1992.677z M2467.265,1905.439
					c244.08-135.636,340.355-450.424,216.099-709.34c-126.686-263.98-436.285-375.187-692.732-241.863
					c-260.38,135.367-359.353,466.53-219.981,732.891C1907.276,1948.24,2219.573,2043.083,2467.265,1905.439z"/>
				
					<linearGradient id="SVGID_00000131361546163660127960000017029696060300788400_" gradientUnits="userSpaceOnUse" x1="93.4685" y1="2007.5719" x2="1207.7609" y2="2007.5719" gradientTransform="matrix(-1 0 0 1 1888.3765 0)">
					<stop  offset="0" style="stop-color:#893976"/>
					<stop  offset="1" style="stop-color:#311944"/>
				</linearGradient>
				<path style="opacity:0.3;fill:url(#SVGID_00000131361546163660127960000017029696060300788400_);" d="M1738.956,1674.333
					l-131.377,70.416c-0.725,46.512-14.299,75.778-29.981,95.077c-58.993,72.608-166.022,27.503-283.963,122.341
					c-59.183,47.59-42.275,67.021-99.391,103.374c-94.426,60.099-152.219,14.359-235.588,68.549
					c-84.325,54.812-77.627,135.688-130.144,143.183c-22.465,3.207-54.291-7.271-98.384-62.223l-21.55,11.551
					c-26.28,14.086-35.711,46.11-21.057,71.47l9.191,15.901c14.608,25.275,47.635,34.279,73.76,20.171l1024.436-553.18
					L1738.956,1674.333z"/>
				
					<linearGradient id="SVGID_00000017512182428217686840000004858609979444538555_" gradientUnits="userSpaceOnUse" x1="-5868.1265" y1="2791.3618" x2="-6486.2432" y2="2099.2827" gradientTransform="matrix(0.9498 0.3129 -0.3129 0.9498 8962.334 1260.2098)">
					<stop  offset="0" style="stop-color:#893976"/>
					<stop  offset="1" style="stop-color:#311944"/>
				</linearGradient>
				<path style="fill:url(#SVGID_00000017512182428217686840000004858609979444538555_);" d="M2537.874,2016.865
					c-293.969,164.341-666.128,53.243-829.976-257.319c-167.787-318.028-49.63-714.307,262.376-875.425
					c306.384-158.214,674.717-23.913,824.473,290.714C2941.096,1482.305,2826.763,1855.364,2537.874,2016.865z M2494.161,1929.626
					c244.08-135.636,340.355-450.424,216.099-709.339c-126.688-263.98-436.285-375.187-692.733-241.863
					c-260.38,135.369-359.353,466.53-219.981,732.892C1934.172,1972.428,2246.469,2067.27,2494.161,1929.626z"/>
				
					<linearGradient id="SVGID_00000108294178624011912840000004425000297933572009_" gradientUnits="userSpaceOnUse" x1="-6776.7632" y1="1780.8867" x2="-5938.4443" y2="2703.7422" gradientTransform="matrix(0.9498 0.3129 -0.3129 0.9498 8962.334 1260.2098)">
					<stop  offset="0" style="stop-color:#893976"/>
					<stop  offset="1" style="stop-color:#311944"/>
				</linearGradient>
				<path style="fill:url(#SVGID_00000108294178624011912840000004425000297933572009_);" d="M2522.448,1986.078
					c-277.637,154.883-628.614,49.469-782.791-243.618c-157.668-299.724-46.307-672.9,247.366-824.914
					c288.684-149.432,636.257-23.368,777.893,273.337C2903.51,1481.212,2795.552,1833.724,2522.448,1986.078z M2494.161,1929.626
					c244.08-135.636,340.355-450.424,216.099-709.339c-126.688-263.98-436.285-375.187-692.733-241.863
					c-260.38,135.369-359.353,466.53-219.981,732.892C1934.172,1972.428,2246.469,2067.27,2494.161,1929.626z"/>
			</g>
			
				<linearGradient id="SVGID_00000013172899160833013800000008797275205490398143_" gradientUnits="userSpaceOnUse" x1="-3883.2861" y1="1482.629" x2="-3863.8071" y2="1372.3698" gradientTransform="matrix(0.8553 -0.5182 0.5182 0.8553 3368.0701 -1003.974)">
				<stop  offset="0" style="stop-color:#FFC444"/>
				<stop  offset="0.9964" style="stop-color:#F36F56"/>
			</linearGradient>
			<path style="fill:url(#SVGID_00000013172899160833013800000008797275205490398143_);" d="M743.174,2208.818l9.466-23.527
				c0,0,15.453,0.942,28.134-8.152c6.91-4.955,19.173-6.431,22.737-5.441c3.563,0.988,17.023,0.399,1.681,7.72
				c-15.341,7.318-15.22,12.756-8.826,18.764c6.394,6.006,30.728,18.929,39.485,19.551c8.759,0.623-7.077,14.169-15.91,15.9
				c-8.834,1.728-23.318,3.916-41.237-6.635C772.17,2223.15,743.174,2208.818,743.174,2208.818z"/>
			
				<linearGradient id="SVGID_00000157993179725640322790000014430873560195614885_" gradientUnits="userSpaceOnUse" x1="-1092.1265" y1="-3587.8589" x2="-1023.8942" y2="-3425.2229" gradientTransform="matrix(-0.3375 0.9413 -0.9413 -0.3375 -2052.6333 1670.934)">
				<stop  offset="0" style="stop-color:#FFC444"/>
				<stop  offset="0.9964" style="stop-color:#F36F56"/>
			</linearGradient>
			<path style="fill:url(#SVGID_00000157993179725640322790000014430873560195614885_);" d="M1651.741,1885.241
				c0,0,31.326-12.597,43.314-46.03c11.988-33.433-8.549-1.08-37.418,7.434c-28.869,8.514-28.869,8.514-28.869,8.514
				s-30.629,7.883-27.06,20.085S1651.741,1885.241,1651.741,1885.241z"/>
		</g>
		<g>
			
				<linearGradient id="SVGID_00000147183808526411466870000004035810753370958228_" gradientUnits="userSpaceOnUse" x1="1955.4916" y1="2808.8867" x2="1971.7806" y2="2566.3638">
				<stop  offset="0" style="stop-color:#444B8C"/>
				<stop  offset="0.9964" style="stop-color:#26264F"/>
			</linearGradient>
			<path style="fill:url(#SVGID_00000147183808526411466870000004035810753370958228_);" d="M1947.811,2586.568
				c0,0,37.535,12.662,41.525,78.109c-6.138-0.512-20.448,0-20.448,0s2.65-47.595-24.049-56.842
				C1946.986,2602.287,1947.811,2586.568,1947.811,2586.568z"/>
			
				<linearGradient id="SVGID_00000147214088387544209190000014687296398182185391_" gradientUnits="userSpaceOnUse" x1="1873.9425" y1="2723.7144" x2="1885.3058" y2="2554.5298">
				<stop  offset="0.1" style="stop-color:#311944"/>
				<stop  offset="0.267" style="stop-color:#371B47"/>
				<stop  offset="0.4803" style="stop-color:#462150"/>
				<stop  offset="0.7186" style="stop-color:#612A5F"/>
				<stop  offset="0.9736" style="stop-color:#853774"/>
				<stop  offset="1" style="stop-color:#893976"/>
			</linearGradient>
			<path style="fill:url(#SVGID_00000147214088387544209190000014687296398182185391_);" d="M1810.092,2582.638
				c0.936,11.916,1.871,23.831,2.807,35.747c18.549-5.351,38.834-11.56,60.642-12.701c28.354-1.483,54.342,1.82,77.487,7.562
				c1.029-1.504,3.21-5.122,4.216-11.013c1.621-9.493-1.093-17.372-1.596-18.776c-11.79-4.375-24.576-8.043-38.275-10.541
				C1876.089,2565.755,1840.591,2572.859,1810.092,2582.638z"/>
			
				<linearGradient id="SVGID_00000124851638025190916820000000889465264891583119_" gradientUnits="userSpaceOnUse" x1="1815.4594" y1="2602.5159" x2="1941.1238" y2="2669.8884">
				<stop  offset="0.1" style="stop-color:#311944"/>
				<stop  offset="0.267" style="stop-color:#371B47"/>
				<stop  offset="0.4803" style="stop-color:#462150"/>
				<stop  offset="0.7186" style="stop-color:#612A5F"/>
				<stop  offset="0.9736" style="stop-color:#853774"/>
				<stop  offset="1" style="stop-color:#893976"/>
			</linearGradient>
			<path style="fill:url(#SVGID_00000124851638025190916820000000889465264891583119_);" d="M1808.344,2592.963
				c0.055-4.31,0.365-9.692,1.748-10.324c1.302-0.596,3.053,3.301,3.806,5.466c0.314,0.902,1.005,3.086,1.437,10.04
				c0.557,8.966-0.092,13.36-0.687,16.074c-0.358,1.632-0.916,4.104-1.748,4.167c-0.668,0.05-1.249-1.511-2.113-4.533
				C1809.62,2609.781,1808.215,2602.99,1808.344,2592.963z"/>
			
				<linearGradient id="SVGID_00000124881399266737516420000006534922662579440036_" gradientUnits="userSpaceOnUse" x1="1779.9092" y1="2837.5342" x2="1798.3783" y2="2562.5542">
				<stop  offset="0" style="stop-color:#444B8C"/>
				<stop  offset="0.9964" style="stop-color:#26264F"/>
			</linearGradient>
			<path style="fill:url(#SVGID_00000124881399266737516420000006534922662579440036_);" d="M1774.156,2668.258
				c7.777,1.541,26.686,6.152,26.686,6.152s-12.329-41.86,10.917-61.181c0.602-3.162,1.213-8.182,0.479-14.217
				c-0.568-4.668-1.754-8.397-2.777-10.98C1799.592,2593.931,1778.109,2613.777,1774.156,2668.258z"/>
			
				<linearGradient id="SVGID_00000119083256756010932970000012839069724663312825_" gradientUnits="userSpaceOnUse" x1="1647.605" y1="2814.2664" x2="1576.376" y2="2163.165">
				<stop  offset="0.1" style="stop-color:#311944"/>
				<stop  offset="0.6853" style="stop-color:#6D2F66"/>
				<stop  offset="1" style="stop-color:#893976"/>
			</linearGradient>
			<path style="fill:url(#SVGID_00000119083256756010932970000012839069724663312825_);" d="M1613.312,2679.286
				c0,0,0.952-21.982,33.383-21.982c5.107,4.007,5.363,21.982,5.363,21.982H1613.312z"/>
			
				<linearGradient id="SVGID_00000101806487415584230100000008515423439344075426_" gradientUnits="userSpaceOnUse" x1="1956.1104" y1="3087.5454" x2="1485.4382" y2="2825.4661">
				<stop  offset="0" style="stop-color:#311944"/>
				<stop  offset="1" style="stop-color:#893976"/>
			</linearGradient>
			<path style="fill:url(#SVGID_00000101806487415584230100000008515423439344075426_);" d="M1584.515,3111.434l88.756,57.937
				l53.777-212.774l-88.609-285.254l-25.126,7.943l-38.124,409.676C1574.325,3098.236,1578.052,3107.215,1584.515,3111.434z"/>
			
				<linearGradient id="SVGID_00000180348278391746614000000013266512873859655055_" gradientUnits="userSpaceOnUse" x1="1531.1426" y1="2720.6807" x2="1674.2556" y2="2960.6704">
				<stop  offset="0" style="stop-color:#311944"/>
				<stop  offset="1" style="stop-color:#893976"/>
			</linearGradient>
			<path style="opacity:0.3;fill:url(#SVGID_00000180348278391746614000000013266512873859655055_);" d="M1727.048,2956.597
				l-88.61-285.254l-25.126,7.943c6.187,25.175,9.153,66.174,10.549,88.996c5.94,97.12,25.668,124.146,16.111,191.899
				c-7.946,56.336-25.3,63.982-23.783,101.884c1.652,41.28,23.983,75.848,50.532,103.031l6.549,4.274L1727.048,2956.597z"/>
			
				<linearGradient id="SVGID_00000073715939651939240050000007558100284775714979_" gradientUnits="userSpaceOnUse" x1="1884.7196" y1="2432.8689" x2="1937.1879" y2="3137.0515">
				<stop  offset="0.1" style="stop-color:#311944"/>
				<stop  offset="0.6853" style="stop-color:#6D2F66"/>
				<stop  offset="1" style="stop-color:#893976"/>
			</linearGradient>
			<polygon style="fill:url(#SVGID_00000073715939651939240050000007558100284775714979_);" points="1638.438,2671.343 
				2125.779,2671.343 2202.503,3123.5 1673.271,3169.371 			"/>
			<g style="opacity:0.2;">
				
					<linearGradient id="SVGID_00000009560951794370658440000000812059172153571484_" gradientUnits="userSpaceOnUse" x1="1796.7311" y1="2832.478" x2="2177.6724" y2="3125.9907">
					<stop  offset="0" style="stop-color:#311944"/>
					<stop  offset="1" style="stop-color:#893976"/>
				</linearGradient>
				<path style="fill:url(#SVGID_00000009560951794370658440000000812059172153571484_);" d="M2125.779,2671.343h-164.175
					c-3.023,9.264-7.645,22.083-14.392,36.586c-73.421,157.83-241.498,177.718-238.462,203.656
					c4.539,38.77,378.821-16.26,388.377,37.013c4.613,25.717-74.424,84.175-157.014,106.309
					c-98.887,26.502-171.556-6.899-219.887,52.647c-16.365,20.162-23.589,43.781-27.108,59.755l509.385-43.809L2125.779,2671.343z"
					/>
			</g>
			
				<linearGradient id="SVGID_00000088118854551833200410000015197450725329449867_" gradientUnits="userSpaceOnUse" x1="1702.1986" y1="2790.1929" x2="1858.2352" y2="2784.1333">
				<stop  offset="0.1" style="stop-color:#311944"/>
				<stop  offset="0.6853" style="stop-color:#6D2F66"/>
				<stop  offset="1" style="stop-color:#893976"/>
			</linearGradient>
			<path style="fill:url(#SVGID_00000088118854551833200410000015197450725329449867_);" d="M1646.696,2657.304
				c-5.49,0-13.166-0.738-21.515,4.546c-1.782,1.128-3.356,2.369-4.737,3.63l3.843-1.473c6.183-1.955,14.708,0.646,17.892,7.335
				c3.913,8.22,5.321,27.241,6.177,36.663c2.433,26.802,17.39,193.562,17.39,193.562c1.12,14.061,11.021,24.709,22.723,24.438
				l453.325-25.425c3.443-0.08,6.845-1.238,9.685-3.586c5.927-4.899,8.604-13.398,7.23-21.472l-22.966-198.61
				c-1.942-11.415-10.267-19.609-19.922-19.609H1646.696z"/>
			
				<linearGradient id="SVGID_00000031192554874799529840000011903985142046067108_" gradientUnits="userSpaceOnUse" x1="1947.1981" y1="3336.8425" x2="1890.7057" y2="2701.981">
				<stop  offset="0.1" style="stop-color:#311944"/>
				<stop  offset="0.267" style="stop-color:#371B47"/>
				<stop  offset="0.4803" style="stop-color:#462150"/>
				<stop  offset="0.7186" style="stop-color:#612A5F"/>
				<stop  offset="0.9736" style="stop-color:#853774"/>
				<stop  offset="1" style="stop-color:#893976"/>
			</linearGradient>
			<path style="fill:url(#SVGID_00000031192554874799529840000011903985142046067108_);" d="M1651.548,2657.304
				c-5.49,0-12.002-0.809-19.26,1.292c-1.957,0.566-5.088,1.605-6.469,2.866c0,0,15.387-3.965,21.213,9.881
				c3.556,8.453,5.321,27.241,6.177,36.663c2.433,26.802,17.39,193.562,17.39,193.562c1.12,14.061,11.021,24.709,22.722,24.438
				l458.432-10.63c3.442-0.08,6.844-1.237,9.685-3.586c5.927-4.899,8.604-13.398,7.23-21.472l-28.073-213.405
				c-1.942-11.415-10.267-19.609-19.922-19.609H1651.548z"/>
			
				<linearGradient id="SVGID_00000115508556085119350500000005098084004005604239_" gradientUnits="userSpaceOnUse" x1="1974.6331" y1="3483.1096" x2="1878.9551" y2="2608.5217">
				<stop  offset="0" style="stop-color:#311944"/>
				<stop  offset="1" style="stop-color:#893976"/>
			</linearGradient>
			<path style="opacity:0.1;fill:url(#SVGID_00000115508556085119350500000005098084004005604239_);" d="M2168.667,2890.317
				l-28.073-213.405c-1.942-11.415-10.267-19.609-19.922-19.609h-469.124c-5.49,0-12.002-0.809-19.26,1.292
				c-1.957,0.566-5.089,1.605-6.469,2.866c0,0,15.387-3.965,21.213,9.881c0.56,1.332,1.072,2.942,1.546,4.71
				c44.552,1.901,89.103,0.533,133.655,3.635c88.07,5.972,177.129,5.972,260.252,44.191c26.588,12.225,44.816,56.147,37.603,76.438
				c-5.201,14.63-22.95,13.472-29.144,32.671c-6.514,20.192,9.105,33.912,2.553,48.082c-6.866,14.852-27.72,7.776-61.48,18.378
				c-18.6,5.841-32.867,14.457-41.777,20.6l201.513-4.673c3.442-0.08,6.844-1.237,9.685-3.586
				C2167.364,2906.89,2170.042,2898.391,2168.667,2890.317z"/>
			<g>
				
					<linearGradient id="SVGID_00000072963776331267046260000016948468879329912705_" gradientUnits="userSpaceOnUse" x1="2100.7217" y1="3020.7737" x2="1817.3539" y2="2872.6497">
					<stop  offset="0" style="stop-color:#FFC444"/>
					<stop  offset="0.9964" style="stop-color:#F36F56"/>
				</linearGradient>
				<path style="fill:url(#SVGID_00000072963776331267046260000016948468879329912705_);" d="M1949.277,2955.105l-57.406,14.839
					l-6.063,0.533c-6.109,0.537-11.366-5.133-11.632-12.603l-2.519-70.625c-0.267-7.471,4.568-13.665,10.692-13.763l6.094-0.098
					l57.706,7.884c5.513-0.089,10.156-3.241,10.406,3.765l2.363,66.235C1959.168,2958.278,1954.776,2954.622,1949.277,2955.105z"/>
				
					<linearGradient id="SVGID_00000024695523616155732700000011318680242258665638_" gradientUnits="userSpaceOnUse" x1="1846.9836" y1="2895.4397" x2="2135.0615" y2="2998.5264">
					<stop  offset="0" style="stop-color:#FFC444"/>
					<stop  offset="0.9964" style="stop-color:#F36F56"/>
				</linearGradient>
				<path style="fill:url(#SVGID_00000024695523616155732700000011318680242258665638_);" d="M1953.642,2964.885l-63.601,5.591
					c-6.108,0.537-11.366-5.133-11.632-12.603l-2.519-70.625c-0.267-7.471,4.567-13.665,10.692-13.763l63.763-1.027
					c5.513-0.089,10.193,5.572,10.443,12.578l2.363,66.235C1963.4,2958.278,1959.141,2964.402,1953.642,2964.885z"/>
			</g>
		</g>
	</g>
</g>
</svg>
